HIERARCHY
ROOT Hips
{
  OFFSET 0 0 0
  CHANNELS 6 Xposition Yposition Zposition Zrotation Yrotation Xrotation
  JOINT LeftThigh
  {
    OFFSET 8.409438 0 -5.917753
    CHANNELS 3 Zrotation Yrotation Xrotation
    JOINT LeftLeg
    {
      OFFSET 0 0 -42.358652
      CHANNELS 3 Zrotation Yrotation Xrotation
      JOINT LeftFoot
      {
        OFFSET 0 0 -39.357303
        CHANNELS 3 Zrotation Yrotation Xrotation
      }
    }
  }
  JOINT RightThigh
  {
    OFFSET -8.409438 0 -5.917753
    CHANNELS 3 Zrotation Yrotation Xrotation
    JOINT RightLeg
    {
      OFFSET 0 0 -42.358652
      CHANNELS 3 Zrotation Yrotation Xrotation
      JOINT RightFoot
      {
        OFFSET 0 0 -39.357303
        CHANNELS 3 Zrotation Yrotation Xrotation
      }
    }
  }
  JOINT SpineLow
  {
    OFFSET 0 0 4.719101
    CHANNELS 3 Zrotation Yrotation Xrotation
    JOINT SpineMid
    {
      OFFSET 0 0 12.899191
      CHANNELS 3 Zrotation Yrotation Xrotation
      JOINT Chest
      {
        OFFSET 0 0 12.899191
        CHANNELS 3 Zrotation Yrotation Xrotation
        JOINT LeftShoulder
        {
          OFFSET 7.550562 1.41573 9.438202
          CHANNELS 3 Zrotation Yrotation Xrotation
          JOINT LeftArm
          {
            OFFSET 9.155056 0 4.247191
            CHANNELS 3 Zrotation Yrotation Xrotation
            JOINT LeftForearm
            {
              OFFSET 0 0 25.771955
              CHANNELS 3 Zrotation Yrotation Xrotation
              JOINT LeftHand
              {
                OFFSET 0 0 25.197169
                CHANNELS 3 Zrotation Yrotation Xrotation
              }
            }
          }
        }
        JOINT RightShoulder
        {
          OFFSET -7.550562 1.41573 9.438202
          CHANNELS 3 Zrotation Yrotation Xrotation
          JOINT RightArm
          {
            OFFSET -9.155056 0 4.247191
            CHANNELS 3 Zrotation Yrotation Xrotation
            JOINT RightForearm
            {
              OFFSET 0 0 -25.771955
              CHANNELS 3 Zrotation Yrotation Xrotation
              JOINT RightHand
              {
                OFFSET 0 0 -25.197169
                CHANNELS 3 Zrotation Yrotation Xrotation
              }
            }
          }
        }
        JOINT Neck
        {
          OFFSET 0 0 15.101124
          CHANNELS 3 Zrotation Yrotation Xrotation
          JOINT Head
          {
            OFFSET 0 0 11.325843
            CHANNELS 3 Zrotation Yrotation Xrotation
            End Site
            {
              OFFSET 0 0 14.157303
            }
          }
        }
      }
    }
  }
}
MOTION
Frames: 11
Frame Time: 0.0
0.0  93.25843  0.0  -5.4321  27.293483  -99.382164  15.10546  -19.270089  30.505942  -2.585315  -2.82358  -6.882757  3.115669  2.960099  1.475752  -24.332266  -9.440792  -23.479481  -6.899153  20.948537  30.688254  1.959656  0.161812  3.673473  -0.439235  -0.063772  0.416255  -1.201664  -0.166743  1.138907  -1.201664  -0.166743  1.138907  -13.37024  16.651753  12.061306  140.956363  45.000862  -157.006554  -22.715401  -7.466045  78.289465  59.108836  -18.596076  4.124956  11.535059  -13.905489  14.294179  21.842653  81.678735  -21.867045  -40.633279  -42.303543  -84.302407  72.605836  4.768792  -2.24482  -16.598192  3.382617  13.566625  -12.527489  2.171526  10.272968  
0.0  93.25843  0.0  -5.212927  26.378944  -99.472532  16.009037  -19.785372  30.241133  -2.888087  -2.61175  -5.517416  3.045174  2.958502  1.609827  -24.62312  -10.228189  -22.789081  -7.721951  21.535617  29.967367  1.673746  0.504535  3.777217  -0.395531  -0.053977  0.439553  -1.082086  -0.140343  1.202321  -1.082086  -0.140343  1.202321  -13.51573  16.383079  12.09675  140.671222  44.198856  -157.619276  -22.207862  -7.912757  78.163638  59.495745  -19.130446  4.545318  11.181958  -13.848549  14.070876  26.95933  81.669742  -17.357349  -39.731631  -42.920314  -85.145533  72.543938  4.725343  -2.197896  -16.39343  3.341906  13.370202  -12.371767  2.150703  10.123183  
0.0  93.25843  0.0  -5.032864  25.500278  -99.570208  16.845067  -20.254554  29.886484  -3.021476  -2.451438  -3.923799  2.923058  2.951655  1.720198  -24.979989  -11.018905  -21.967066  -8.43838  22.045569  29.129087  1.580169  0.8415  3.854336  -0.363828  -0.049058  0.447949  -0.995359  -0.127349  1.225132  -0.995359  -0.127349  1.225132  -13.730006  16.133863  12.245788  140.520529  43.477549  -158.157417  -21.732099  -8.47117  77.91658  60.042913  -19.625489  4.801289  10.905948  -13.845972  14.032337  32.476695  81.570465  -12.433057  -38.882104  -43.141231  -86.076881  72.548605  4.59377  -2.075257  -16.43354  3.397336  13.159028  -12.401559  2.197121  9.966377  
0.0  93.25843  0.0  -4.89642  24.673121  -99.665593  17.599465  -20.713601  29.425426  -3.046466  -2.296472  -2.137912  2.818859  2.893021  1.829745  -25.766025  -11.86852  -20.916554  -8.516111  22.344933  28.333036  1.518013  1.400686  3.832256  -0.362403  -0.061047  0.443784  -0.991675  -0.160206  1.213923  -0.991675  -0.160206  1.213923  -13.86267  15.98098  12.515004  140.426256  42.884272  -158.632995  -21.459411  -8.955464  77.597289  60.53795  -19.937403  4.897158  10.492945  -13.810038  13.938549  39.756565  81.248771  -5.945086  -38.062525  -43.01778  -87.074192  72.464146  4.359205  -2.012442  -16.15507  3.474282  13.082238  -12.193636  2.262885  9.908823  
0.0  93.25843  0.0  -4.787033  23.804766  -99.784105  18.295833  -21.137977  28.871848  -2.84831  -2.161954  -0.080253  2.704961  2.767684  1.953447  -26.811064  -12.712645  -19.433233  -7.887216  22.544927  27.476153  1.898163  2.127951  3.520456  -0.366808  -0.090084  0.433806  -1.004215  -0.239642  1.187106  -1.004215  -0.239642  1.187106  -14.080548  15.982497  12.772613  140.530745  42.405705  -159.078686  -21.538159  -9.05148  77.201674  60.900943  -20.014779  4.970938  10.074664  -13.707854  13.913169  51.355609  80.021332  3.375757  -36.758771  -43.074899  -88.369881  74.131089  4.60892  -0.629271  -15.935773  3.631287  13.056182  -12.031975  2.386141  9.891628  
0.0  93.25843  0.0  -4.723837  22.885663  -99.861822  18.88251  -21.469328  28.173262  -2.357157  -2.12523  2.269536  2.603895  2.702678  2.120289  -27.834316  -13.317047  -17.839927  -6.688265  22.807912  26.927869  2.852355  2.114811  2.947172  -0.373178  -0.134413  0.41576  -1.022329  -0.360968  1.138491  -1.022329  -0.360968  1.138491  -14.182592  16.082267  13.004556  140.622116  42.154036  -159.473773  -22.027305  -8.625622  76.653326  61.38128  -19.959232  5.105737  9.515934  -13.537393  13.867304  57.057149  79.172346  8.08403  -35.706714  -42.82446  -89.623661  74.066651  4.260588  -0.52197  -15.630767  3.790928  13.137253  -11.806825  2.51044  9.95414  
0.0  93.25843  0.0  -4.671003  21.794231  -99.883921  19.328951  -21.621889  27.343185  -1.449118  -2.183125  4.989769  2.323552  2.674394  2.32029  -28.135814  -13.569374  -16.568302  -5.074756  22.883625  27.055802  3.61201  1.077615  2.483949  -0.368982  -0.189813  0.391945  -1.01164  -0.512824  1.074231  -1.01164  -0.512824  1.074231  -14.284661  16.283145  13.057698  140.738804  42.135235  -159.911775  -22.736401  -8.019067  75.978237  62.022899  -19.830623  5.105873  8.93479  -13.331942  13.870743  62.050821  78.122017  12.016001  -34.421447  -42.685845  -91.159098  73.854618  3.945441  -0.455479  -15.302664  3.946188  13.285849  -11.564811  2.630341  10.066864  
0.0  93.25843  0.0  -4.562971  20.692097  -100.146793  19.420029  -21.562371  26.614023  -0.454163  -2.368219  8.161213  2.129057  2.550841  2.55345  -26.332663  -12.928399  -15.990199  -4.052711  21.864031  27.741574  3.154118  0.206378  2.288007  -0.376327  -0.233731  0.415308  -1.03266  -0.632378  1.138841  -1.03266  -0.632378  1.138841  -14.402428  16.494037  13.016818  141.050743  42.388792  -160.187813  -23.315391  -7.614468  75.219111  62.659934  -19.656926  4.774132  8.327014  -13.170814  13.893225  66.55175  76.928585  15.461164  -32.821637  -42.805753  -93.022349  73.602494  3.754091  -0.483383  -14.960903  4.046433  13.466985  -11.311783  2.708586  10.202472  
0.0  93.25843  0.0  -4.425419  19.589281  -100.504299  19.361111  -21.522289  25.660769  0.415672  -2.654682  11.880517  2.13065  2.385393  2.922277  -23.297974  -12.019498  -15.845782  -3.610111  19.844427  28.467779  3.560764  0.799291  3.245709  -0.421486  -0.274863  0.445576  -1.157153  -0.743489  1.222731  -1.157153  -0.743489  1.222731  -14.380384  16.737337  13.06017  141.785816  42.94617  -160.156109  -23.631436  -7.393629  74.450142  63.076973  -19.433503  4.194126  7.836768  -12.966951  14.075898  70.486693  75.620541  18.280425  -30.990509  -43.086095  -95.078399  73.520565  3.636872  -0.50886  -14.527512  4.120767  13.688717  -10.989877  2.768645  10.367136  
0.0  93.25843  0.0  -4.22658  18.525908  -100.921313  19.351159  -21.714607  24.436529  1.101193  -3.077634  16.250195  1.907557  2.257412  3.281946  -20.524845  -11.460348  -15.514612  -3.29195  17.845941  28.800013  1.6025  1.692838  3.553869  -0.497535  -0.305705  0.478202  -1.366011  -0.825697  1.313406  -1.366011  -0.825697  1.313407  -14.307617  17.002789  13.242287  143.058197  43.789999  -159.783561  -23.804349  -7.105872  73.76442  63.276648  -19.208125  3.545833  7.362588  -12.715646  14.361076  74.150137  74.124569  20.718776  -29.140426  -43.184389  -97.138102  73.545989  3.512843  -0.510386  -14.043902  4.169889  13.90625  -10.6298  2.811313  10.527614  
0.0  93.25843  0.0  -4.019734  17.522179  -101.309028  19.453683  -22.070921  22.855617  1.142142  -3.443841  21.158569  1.568778  2.205907  3.369642  -18.482856  -11.127222  -14.880263  -3.888463  17.049394  28.568883  1.04799  1.92803  3.676567  -0.591286  -0.328747  0.502115  -1.623057  -0.886215  1.380499  -1.623057  -0.886215  1.380499  -14.237953  17.217005  13.512693  144.609332  44.746324  -159.210863  -24.152687  -6.613433  73.302368  63.402241  -18.982387  3.00979  6.849862  -12.475934  14.693964  77.808384  72.3978  23.059351  -25.613961  -43.987238  -100.287973  75.002788  3.71101  0.628413  -13.510016  4.199012  14.126803  -10.231644  2.840395  10.689487  
